<?xml version="1.0" encoding="UTF-8" standalone="no"?>
<!DOCTYPE svg PUBLIC "-//W3C//DTD SVG 1.1//EN" "http://www.w3.org/Graphics/SVG/1.1/DTD/svg11.dtd">
<!-- Generated by Microsoft Visio, SVG Export CSV_Data_Flow.svg Page-1 -->
<svg xmlns="http://www.w3.org/2000/svg" xmlns:xlink="http://www.w3.org/1999/xlink" xmlns:ev="http://www.w3.org/2001/xml-events"
		xmlns:v="http://schemas.microsoft.com/visio/2003/SVGExtensions/" width="8.5in" height="11in" viewBox="0 0 612 792"
		xml:space="preserve" color-interpolation-filters="sRGB" class="st12">
	<v:documentProperties v:langID="1033" v:viewMarkup="false">
		<v:userDefs>
			<v:ud v:nameU="msvNoAutoConnect" v:val="VT0(1):26"/>
		</v:userDefs>
	</v:documentProperties>

	<style type="text/css">
	<![CDATA[
		.st1 {visibility:visible}
		.st2 {fill:#8397af;fill-opacity:0.4;filter:url(#filter_6);stroke:#8397af;stroke-linecap:round;stroke-linejoin:round;stroke-opacity:0.4}
		.st3 {fill:url(#grad0-7);stroke:#ffffff;stroke-linecap:round;stroke-linejoin:round;stroke-width:2}
		.st4 {fill:#ffffff;font-family:Franklin Gothic Book;font-size:0.666664em}
		.st5 {font-size:1em}
		.st6 {fill:#8397af;fill-opacity:0.4;filter:url(#filter_6)}
		.st7 {fill:none;filter:url(#filter_6);stroke:#8397af;stroke-linecap:round;stroke-linejoin:round;stroke-opacity:0.4}
		.st8 {fill:url(#grad0-7)}
		.st9 {stroke:#ffffff;stroke-linecap:round;stroke-linejoin:round;stroke-width:2}
		.st10 {marker-end:url(#mrkr13-100);stroke:#749293;stroke-linecap:butt;stroke-width:1.5}
		.st11 {fill:#749293;fill-opacity:1;stroke:#749293;stroke-opacity:1;stroke-width:0.37313432835821}
		.st12 {fill:none;fill-rule:evenodd;font-size:12px;overflow:visible;stroke-linecap:square;stroke-miterlimit:3}
	]]>
	</style>

	<defs id="Patterns_And_Gradients">
		<linearGradient id="grad0-7" x1="0" y1="0" x2="1" y2="0" gradientTransform="rotate(250 0.5 0.5)">
			<stop offset="0" stop-color="#b9c4c5" stop-opacity="1"/>
			<stop offset="0.31" stop-color="#65898a" stop-opacity="1"/>
			<stop offset="0.48" stop-color="#5a8081" stop-opacity="1"/>
			<stop offset="0.71" stop-color="#537677" stop-opacity="1"/>
			<stop offset="1" stop-color="#4b6c6c" stop-opacity="1"/>
		</linearGradient>
	</defs>
	<defs id="Markers">
		<g id="lend13">
			<path d="M 3 1 L 0 0 L 3 -1 L 3 1 " style="stroke:none"/>
		</g>
		<marker id="mrkr13-100" class="st11" v:arrowType="13" v:arrowSize="2" v:setback="8.04" refX="-8.04" orient="auto"
				markerUnits="strokeWidth" overflow="visible">
			<use xlink:href="#lend13" transform="scale(-2.68,-2.68) "/>
		</marker>
	</defs>
	<defs id="Filters">
		<filter id="filter_6">
			<feGaussianBlur stdDeviation="6"/>
		</filter>
	</defs>
	<g v:mID="0" v:index="1" v:groupContext="foregroundPage">
		<v:userDefs>
			<v:ud v:nameU="msvThemeOrder" v:val="VT0(0):26"/>
		</v:userDefs>
		<title>Page-1</title>
		<v:pageProperties v:drawingScale="1" v:pageScale="1" v:drawingUnits="19" v:shadowOffsetX="9" v:shadowOffsetY="-9"/>
		<v:layer v:name="Flowchart" v:index="0"/>
		<v:layer v:name="Connector" v:index="1"/>
		<g id="shape1-1" v:mID="1" v:groupContext="shape" v:layerMember="0" transform="translate(79.9902,-630.78)">
			<title>Manual file</title>
			<desc>CSV File</desc>
			<v:custProps>
				<v:cp v:nameU="Cost" v:lbl="Cost" v:type="7" v:format="@" v:langID="1033"/>
				<v:cp v:nameU="Duration" v:lbl="Duration" v:type="2" v:langID="1033"/>
				<v:cp v:nameU="Resources" v:lbl="Resources" v:langID="1033"/>
			</v:custProps>
			<v:userDefs>
				<v:ud v:nameU="visVersion" v:val="VT0(15):26"/>
			</v:userDefs>
			<v:textBlock v:margins="rect(2,2,2,2)"/>
			<v:textRect cx="24.75" cy="754.875" width="37.13" height="24.75"/>
			<g id="shadow1-2" v:groupContext="shadow" v:shadowOffsetX="2.8296" v:shadowOffsetY="-2.8296" v:shadowType="1"
					transform="matrix(1,0,0,1,2.8296,2.8296)" class="st1">
				<path d="M0 742.5 L49.5 742.5 L24.75 792 L0 742.5 Z" class="st2"/>
			</g>
			<path d="M0 742.5 L49.5 742.5 L24.75 792 L0 742.5 Z" class="st3"/>
			<text x="11.06" y="757.27" class="st4" v:langID="1033"><v:paragraph v:horizAlign="1"/><v:tabList/>CSV File  </text>		</g>
		<g id="shape2-9" v:mID="2" v:groupContext="shape" v:layerMember="0" transform="translate(79.9902,-715.961)">
			<title>Compare 2</title>
			<desc>Service Providers</desc>
			<v:custProps>
				<v:cp v:nameU="Cost" v:lbl="Cost" v:type="7" v:format="@" v:langID="1033"/>
				<v:cp v:nameU="Duration" v:lbl="Duration" v:type="2" v:langID="1033"/>
				<v:cp v:nameU="Resources" v:lbl="Resources" v:langID="1033"/>
			</v:custProps>
			<v:userDefs>
				<v:ud v:nameU="visVersion" v:val="VT0(15):26"/>
			</v:userDefs>
			<v:textBlock v:margins="rect(2,2,2,2)"/>
			<v:textRect cx="24.75" cy="767.25" width="49.5" height="49.5"/>
			<g id="shadow2-10" v:groupContext="shadow" v:shadowOffsetX="2.8296" v:shadowOffsetY="-2.8296" v:shadowType="1"
					transform="matrix(1,0,0,1,2.8296,2.8296)" class="st1">
				<rect x="0" y="742.5" width="49.5" height="49.5" class="st2"/>
			</g>
			<rect x="0" y="742.5" width="49.5" height="49.5" class="st3"/>
			<text x="12.41" y="764.85" class="st4" v:langID="1033"><v:paragraph v:horizAlign="1"/><v:tabList/>Service <tspan
						x="8.99" dy="1.2em" class="st5">Providers</tspan></text>		</g>
		<g id="group3-17" transform="translate(216,-634.27)" v:mID="3" v:groupContext="group" v:layerMember="0">
			<v:custProps>
				<v:cp v:nameU="Cost" v:lbl="Cost" v:type="7" v:format="@" v:langID="1033"/>
				<v:cp v:nameU="Duration" v:lbl="Duration" v:type="2" v:langID="1033"/>
				<v:cp v:nameU="Resources" v:lbl="Resources" v:langID="1033"/>
			</v:custProps>
			<v:userDefs>
				<v:ud v:nameU="AntiScale" v:val="VT0(1):26"/>
				<v:ud v:nameU="visVersion" v:val="VT0(15):26"/>
			</v:userDefs>
			<title>Divided process</title>
			<g id="shape4-18" v:mID="4" v:groupContext="shape" v:layerMember="0" transform="translate(0,-28.3465)">
				<title>Sheet.4</title>
				<desc>RAMSP</desc>
				<v:textBlock v:margins="rect(2,2,2,2)"/>
				<v:textRect cx="35.4331" cy="784.913" width="70.87" height="14.1732"/>
				<g id="shadow4-19" v:groupContext="shadow" v:shadowOffsetX="2.8296" v:shadowOffsetY="-2.8296" v:shadowType="1"
						transform="matrix(1,0,0,1,2.8296,2.8296)" class="st1">
					<rect x="0" y="777.827" width="70.8661" height="14.1732" class="st2"/>
				</g>
				<rect x="0" y="777.827" width="70.8661" height="14.1732" class="st3"/>
				<text x="23.09" y="787.31" class="st4" v:langID="1033"><v:paragraph v:horizAlign="1"/><v:tabList/>RAMSP</text>			</g>
			<g id="shape5-25" v:mID="5" v:groupContext="shape" v:layerMember="0">
				<title>Sheet.5</title>
				<desc>CSV Loader Process</desc>
				<v:textBlock v:margins="rect(2,2,2,2)"/>
				<v:textRect cx="35.4331" cy="777.827" width="70.87" height="28.3465"/>
				<g id="shadow5-26" v:groupContext="shadow" v:shadowOffsetX="2.8296" v:shadowOffsetY="-2.8296" v:shadowType="1"
						transform="matrix(1,0,0,1,2.8296,2.8296)" class="st1">
					<rect x="0" y="763.654" width="70.8661" height="28.3465" class="st2"/>
				</g>
				<rect x="0" y="763.654" width="70.8661" height="28.3465" class="st3"/>
				<text x="15.99" y="775.43" class="st4" v:langID="1033"><v:paragraph v:horizAlign="1"/><v:tabList/>CSV Loader <tspan
							x="22.14" dy="1.2em" class="st5">Process</tspan></text>			</g>
		</g>
		<g id="shape6-33" v:mID="6" v:groupContext="shape" v:layerMember="0" transform="translate(69.3071,-491.74)">
			<title>Database</title>
			<desc>RAMSD</desc>
			<v:custProps>
				<v:cp v:nameU="Cost" v:lbl="Cost" v:type="7" v:format="@" v:langID="1033"/>
				<v:cp v:nameU="Duration" v:lbl="Duration" v:type="2" v:langID="1033"/>
				<v:cp v:nameU="Resources" v:lbl="Resources" v:langID="1033"/>
			</v:custProps>
			<v:userDefs>
				<v:ud v:nameU="visVersion" v:val="VT0(15):26"/>
			</v:userDefs>
			<v:textBlock v:margins="rect(2,2,2,2)"/>
			<v:textRect cx="35.4331" cy="781.37" width="70.87" height="21.2598"/>
			<g id="shadow6-34" v:groupContext="shadow" v:shadowOffsetX="2.8296" v:shadowOffsetY="-2.8296" v:shadowType="1"
					transform="matrix(1,0,0,1,2.8296,2.8296)" class="st1">
				<path d="M0 756.57 L0 784.91 A35.4331 7.08661 -180 1 0 70.87 784.91 L70.87 756.57 A35.4331 7.08661 -180 0 0 0 756.57
							 Z" class="st6"/>
				<path d="M0 756.57 L0 784.91 A35.4331 7.08661 -180 1 0 70.87 784.91 L70.87 756.57 A35.4331 7.08661 -180 0 0 0 756.57"
						class="st7"/>
				<path d="M0 756.57 A35.4331 7.08661 -180 1 0 70.87 756.57" class="st7"/>
				<path d="M0 760.11 A35.4331 7.08661 -180 0 0 70.87 760.11" class="st7"/>
				<path d="M0 763.65 A35.4331 7.08661 -180 1 0 70.87 763.65" class="st7"/>
			</g>
			<path d="M0 756.57 L0 784.91 A35.4331 7.08661 -180 1 0 70.87 784.91 L70.87 756.57 A35.4331 7.08661 -180 0 0 0 756.57 Z"
					class="st8"/>
			<path d="M0 756.57 L0 784.91 A35.4331 7.08661 -180 1 0 70.87 784.91 L70.87 756.57 A35.4331 7.08661 -180 0 0 0 756.57"
					class="st9"/>
			<path d="M0 756.57 A35.4331 7.08661 -180 1 0 70.87 756.57" class="st9"/>
			<path d="M0 760.11 A35.4331 7.08661 -180 0 0 70.87 760.11" class="st9"/>
			<path d="M0 763.65 A35.4331 7.08661 -180 1 0 70.87 763.65" class="st9"/>
			<text x="22.73" y="783.77" class="st4" v:langID="1033"><v:paragraph v:horizAlign="1"/><v:tabList/>RAMSD</text>		</g>
		<g id="shape7-49" v:mID="7" v:groupContext="shape" v:layerMember="0" transform="translate(216,-719.451)">
			<title>Database.7</title>
			<desc>RAMSP</desc>
			<v:custProps>
				<v:cp v:nameU="Cost" v:lbl="Cost" v:type="7" v:format="@" v:langID="1033"/>
				<v:cp v:nameU="Duration" v:lbl="Duration" v:type="2" v:langID="1033"/>
				<v:cp v:nameU="Resources" v:lbl="Resources" v:langID="1033"/>
			</v:custProps>
			<v:userDefs>
				<v:ud v:nameU="visVersion" v:val="VT0(15):26"/>
			</v:userDefs>
			<v:textBlock v:margins="rect(2,2,2,2)"/>
			<v:textRect cx="35.4331" cy="781.37" width="70.87" height="21.2598"/>
			<g id="shadow7-50" v:groupContext="shadow" v:shadowOffsetX="2.8296" v:shadowOffsetY="-2.8296" v:shadowType="1"
					transform="matrix(1,0,0,1,2.8296,2.8296)" class="st1">
				<path d="M0 756.57 L0 784.91 A35.4331 7.08661 -180 1 0 70.87 784.91 L70.87 756.57 A35.4331 7.08661 -180 0 0 0 756.57
							 Z" class="st6"/>
				<path d="M0 756.57 L0 784.91 A35.4331 7.08661 -180 1 0 70.87 784.91 L70.87 756.57 A35.4331 7.08661 -180 0 0 0 756.57"
						class="st7"/>
				<path d="M0 756.57 A35.4331 7.08661 -180 1 0 70.87 756.57" class="st7"/>
				<path d="M0 760.11 A35.4331 7.08661 -180 0 0 70.87 760.11" class="st7"/>
				<path d="M0 763.65 A35.4331 7.08661 -180 1 0 70.87 763.65" class="st7"/>
			</g>
			<path d="M0 756.57 L0 784.91 A35.4331 7.08661 -180 1 0 70.87 784.91 L70.87 756.57 A35.4331 7.08661 -180 0 0 0 756.57 Z"
					class="st8"/>
			<path d="M0 756.57 L0 784.91 A35.4331 7.08661 -180 1 0 70.87 784.91 L70.87 756.57 A35.4331 7.08661 -180 0 0 0 756.57"
					class="st9"/>
			<path d="M0 756.57 A35.4331 7.08661 -180 1 0 70.87 756.57" class="st9"/>
			<path d="M0 760.11 A35.4331 7.08661 -180 0 0 70.87 760.11" class="st9"/>
			<path d="M0 763.65 A35.4331 7.08661 -180 1 0 70.87 763.65" class="st9"/>
			<text x="23.09" y="783.77" class="st4" v:langID="1033"><v:paragraph v:horizAlign="1"/><v:tabList/>RAMSP</text>		</g>
		<g id="group8-65" transform="translate(69.3071,-561.26)" v:mID="8" v:groupContext="group" v:layerMember="0">
			<v:custProps>
				<v:cp v:nameU="Cost" v:lbl="Cost" v:type="7" v:format="@" v:langID="1033"/>
				<v:cp v:nameU="Duration" v:lbl="Duration" v:type="2" v:langID="1033"/>
				<v:cp v:nameU="Resources" v:lbl="Resources" v:langID="1033"/>
			</v:custProps>
			<v:userDefs>
				<v:ud v:nameU="AntiScale" v:val="VT0(1):26"/>
				<v:ud v:nameU="visVersion" v:val="VT0(15):26"/>
			</v:userDefs>
			<title>Divided process.8</title>
			<g id="shape9-66" v:mID="9" v:groupContext="shape" v:layerMember="0" transform="translate(0,-28.3465)">
				<title>Sheet.9</title>
				<desc>RAMSD</desc>
				<v:textBlock v:margins="rect(2,2,2,2)"/>
				<v:textRect cx="35.4331" cy="784.913" width="70.87" height="14.1732"/>
				<g id="shadow9-67" v:groupContext="shadow" v:shadowOffsetX="2.8296" v:shadowOffsetY="-2.8296" v:shadowType="1"
						transform="matrix(1,0,0,1,2.8296,2.8296)" class="st1">
					<rect x="0" y="777.827" width="70.8661" height="14.1732" class="st2"/>
				</g>
				<rect x="0" y="777.827" width="70.8661" height="14.1732" class="st3"/>
				<text x="22.73" y="787.31" class="st4" v:langID="1033"><v:paragraph v:horizAlign="1"/><v:tabList/>RAMSD</text>			</g>
			<g id="shape10-73" v:mID="10" v:groupContext="shape" v:layerMember="0">
				<title>Sheet.10</title>
				<desc>CSV Loader Process</desc>
				<v:textBlock v:margins="rect(2,2,2,2)"/>
				<v:textRect cx="35.4331" cy="777.827" width="70.87" height="28.3465"/>
				<g id="shadow10-74" v:groupContext="shadow" v:shadowOffsetX="2.8296" v:shadowOffsetY="-2.8296" v:shadowType="1"
						transform="matrix(1,0,0,1,2.8296,2.8296)" class="st1">
					<rect x="0" y="763.654" width="70.8661" height="28.3465" class="st2"/>
				</g>
				<rect x="0" y="763.654" width="70.8661" height="28.3465" class="st3"/>
				<text x="15.99" y="775.43" class="st4" v:langID="1033"><v:paragraph v:horizAlign="1"/><v:tabList/>CSV Loader <tspan
							x="22.14" dy="1.2em" class="st5">Process</tspan></text>			</g>
		</g>
		<g id="shape11-81" v:mID="11" v:groupContext="shape" v:layerMember="0" transform="translate(226.683,-554.28)">
			<title>Manual file.11</title>
			<desc>CSV File</desc>
			<v:custProps>
				<v:cp v:nameU="Cost" v:lbl="Cost" v:type="7" v:format="@" v:langID="1033"/>
				<v:cp v:nameU="Duration" v:lbl="Duration" v:type="2" v:langID="1033"/>
				<v:cp v:nameU="Resources" v:lbl="Resources" v:langID="1033"/>
			</v:custProps>
			<v:userDefs>
				<v:ud v:nameU="visVersion" v:val="VT0(15):26"/>
			</v:userDefs>
			<v:textBlock v:margins="rect(2,2,2,2)"/>
			<v:textRect cx="24.75" cy="754.875" width="37.13" height="24.75"/>
			<g id="shadow11-82" v:groupContext="shadow" v:shadowOffsetX="2.8296" v:shadowOffsetY="-2.8296" v:shadowType="1"
					transform="matrix(1,0,0,1,2.8296,2.8296)" class="st1">
				<path d="M0 742.5 L49.5 742.5 L24.75 792 L0 742.5 Z" class="st2"/>
			</g>
			<path d="M0 742.5 L49.5 742.5 L24.75 792 L0 742.5 Z" class="st3"/>
			<text x="11.06" y="757.27" class="st4" v:langID="1033"><v:paragraph v:horizAlign="1"/><v:tabList/>CSV File  </text>		</g>
		<g id="shape12-88" v:mID="12" v:groupContext="shape" v:layerMember="0" transform="translate(216,-491.74)">
			<title>Event</title>
			<desc>If Successful</desc>
			<v:custProps>
				<v:cp v:nameU="Cost" v:lbl="Cost" v:type="7" v:format="@" v:langID="1033"/>
				<v:cp v:nameU="Duration" v:lbl="Duration" v:type="2" v:langID="1033"/>
				<v:cp v:nameU="Resources" v:lbl="Resources" v:langID="1033"/>
			</v:custProps>
			<v:userDefs>
				<v:ud v:nameU="scaling" v:val="VT0(1):26"/>
				<v:ud v:nameU="visVersion" v:val="VT0(15):26"/>
			</v:userDefs>
			<v:textBlock v:margins="rect(2,2,2,2)"/>
			<v:textRect cx="35.4331" cy="770.74" width="70.87" height="42.5197"/>
			<g id="shadow12-89" v:groupContext="shadow" v:shadowOffsetX="2.8296" v:shadowOffsetY="-2.8296" v:shadowType="1"
					transform="matrix(1,0,0,1,2.8296,2.8296)" class="st1">
				<rect x="0" y="749.48" width="70.8661" height="42.5197" rx="18" ry="18" class="st2"/>
			</g>
			<rect x="0" y="749.48" width="70.8661" height="42.5197" rx="18" ry="18" class="st3"/>
			<text x="13.99" y="773.14" class="st4" v:langID="1033"><v:paragraph v:horizAlign="1"/><v:tabList/>If Successful</text>		</g>
		<g id="shape13-95" v:mID="13" v:groupContext="shape" v:layerMember="1" transform="translate(95.7402,-715.961)">
			<title>Dynamic connector</title>
			<path d="M9 792 L9 815.62" class="st10"/>
		</g>
		<g id="shape14-101" v:mID="14" v:groupContext="shape" v:layerMember="1" transform="translate(95.7402,-630.78)">
			<title>Dynamic connector.14</title>
			<path d="M9 792 L9 806.94" class="st10"/>
		</g>
		<g id="shape15-106" v:mID="15" v:groupContext="shape" v:layerMember="1" transform="translate(95.7402,-561.26)">
			<title>Dynamic connector.15</title>
			<path d="M9 792 L9 806.94" class="st10"/>
		</g>
		<g id="shape16-111" v:mID="16" v:groupContext="shape" v:layerMember="1" transform="translate(140.173,-504)">
			<title>Dynamic connector.16</title>
			<path d="M0 783 L63.77 783" class="st10"/>
		</g>
		<g id="shape17-116" v:mID="17" v:groupContext="shape" v:layerMember="1" transform="translate(242.433,-534.26)">
			<title>Dynamic connector.17</title>
			<path d="M9 792 L9 784.04" class="st10"/>
		</g>
		<g id="shape18-121" v:mID="18" v:groupContext="shape" v:layerMember="1" transform="translate(242.433,-603.78)">
			<title>Dynamic connector.18</title>
			<path d="M9 792 L9 773.57" class="st10"/>
		</g>
		<g id="shape19-126" v:mID="19" v:groupContext="shape" v:layerMember="1" transform="translate(242.433,-676.789)">
			<title>Dynamic connector.19</title>
			<path d="M9 792 L9 761.4" class="st10"/>
		</g>
	</g>
</svg>
